# Exported from Wings 3D 0.98.32a
mtllib cube1.mtl
o cube1
#8 vertices, 6 faces
v -1.00000000 -1.00000000 1.00000000
v -1.00000000 1.00000000 1.00000000
v 1.00000000 1.00000000 1.00000000
v 1.00000000 -1.00000000 1.00000000
v -1.00000000 -1.00000000 -1.00000000
v -1.00000000 1.00000000 -1.00000000
v 1.00000000 1.00000000 -1.00000000
v 1.00000000 -1.00000000 -1.00000000
vt 0.0000000e+0 0.33333333
vt 0.0000000e+0 0.33333333
vt 0.0000000e+0 0.66666667
vt 2.7755576e-17 0.0000000e+0
vt 2.7755576e-17 0.66666667
vt 2.7755576e-17 1.00000000
vt 0.33333333 0.33333333
vt 0.33333333 0.33333333
vt 0.33333333 0.66666667
vt 0.33333333 2.7755576e-17
vt 0.33333333 0.66666667
vt 0.33333333 1.00000000
vt 0.33333333 0.0000000e+0
vt 0.33333333 0.33333333
vt 0.33333333 0.33333333
vt 0.33333333 0.66666667
vt 0.33333333 1.00000000
vt 0.66666667 0.0000000e+0
vt 0.66666667 0.33333333
vt 0.66666667 0.33333333
vt 0.66666667 0.66666667
vt 0.66666667 1.00000000
vn 0.0000000e+0 0.0000000e+0 1.00000000
vn 0.0000000e+0 -1.00000000 0.0000000e+0
vn -1.00000000 0.0000000e+0 0.0000000e+0
vn 0.0000000e+0 0.0000000e+0 1.00000000
vn 0.0000000e+0 1.00000000 0.0000000e+0
vn -1.00000000 0.0000000e+0 0.0000000e+0
vn 0.0000000e+0 0.0000000e+0 1.00000000
vn 1.00000000 0.0000000e+0 0.0000000e+0
vn 0.0000000e+0 1.00000000 0.0000000e+0
vn 0.0000000e+0 0.0000000e+0 1.00000000
vn 1.00000000 0.0000000e+0 0.0000000e+0
vn 0.0000000e+0 -1.00000000 0.0000000e+0
vn 0.0000000e+0 -1.00000000 0.0000000e+0
vn 0.0000000e+0 0.0000000e+0 -1.00000000
vn -1.00000000 0.0000000e+0 0.0000000e+0
vn 0.0000000e+0 1.00000000 0.0000000e+0
vn 0.0000000e+0 0.0000000e+0 -1.00000000
vn -1.00000000 0.0000000e+0 0.0000000e+0
vn 1.00000000 0.0000000e+0 0.0000000e+0
vn 0.0000000e+0 1.00000000 0.0000000e+0
vn 0.0000000e+0 0.0000000e+0 -1.00000000
vn 1.00000000 0.0000000e+0 0.0000000e+0
vn 0.0000000e+0 -1.00000000 0.0000000e+0
vn 0.0000000e+0 0.0000000e+0 -1.00000000
g cube1_cube1_auv
usemtl cube1_auv
f 1/16/1 4/21/10 3/22/7 2/17/4
f 1/15/2 5/20/13 8/21/23 4/16/12
f 2/10/6 6/7/18 5/1/15 1/4/3
f 3/18/9 7/19/20 6/14/16 2/13/5
f 4/9/11 8/12/22 7/6/19 3/3/8
f 6/8/17 7/11/21 8/5/24 5/2/14
